<?xml version="1.0" encoding="UTF-8" standalone="no"?>
<svg
   xmlns:dc="http://purl.org/dc/elements/1.1/"
   xmlns:cc="http://creativecommons.org/ns#"
   xmlns:rdf="http://www.w3.org/1999/02/22-rdf-syntax-ns#"
   xmlns:svg="http://www.w3.org/2000/svg"
   xmlns="http://www.w3.org/2000/svg"
   xmlns:sodipodi="http://sodipodi.sourceforge.net/DTD/sodipodi-0.dtd"
   xmlns:inkscape="http://www.inkscape.org/namespaces/inkscape"
   id="svg3694"
   version="1.1"
   viewBox="0 0 171.97916 92.604166"
   height="350"
   width="650"
   sodipodi:docname="logo.svg"
   inkscape:version="0.92.1 r15371">
  <sodipodi:namedview
     pagecolor="#ffffff"
     bordercolor="#666666"
     borderopacity="1"
     objecttolerance="10"
     gridtolerance="10"
     guidetolerance="10"
     inkscape:pageopacity="0"
     inkscape:pageshadow="2"
     inkscape:window-width="1366"
     inkscape:window-height="705"
     id="namedview22"
     showgrid="false"
     inkscape:zoom="0.4774972"
     inkscape:cx="-47.641795"
     inkscape:cy="535.61025"
     inkscape:window-x="-8"
     inkscape:window-y="-8"
     inkscape:window-maximized="1"
     inkscape:current-layer="svg3694"
     inkscape:snap-bbox="true"
     inkscape:snap-global="true"
     inkscape:bbox-nodes="true"
     inkscape:bbox-paths="true"
     units="px" />
  <defs
     id="defs3688" />
  <metadata
     id="metadata3691">
    <rdf:RDF>
      <cc:Work
         rdf:about="">
        <dc:format>image/svg+xml</dc:format>
        <dc:type
           rdf:resource="http://purl.org/dc/dcmitype/StillImage" />
        <dc:title></dc:title>
      </cc:Work>
    </rdf:RDF>
  </metadata>
  <g
     id="layer1"
     transform="translate(-28.813432,-100.7783)">
    <path
       transform="scale(0.26458333)"
       id="path3824"
       d=""
       style="fill:#008000;stroke-width:2.85714293"
       inkscape:connector-curvature="0" />
    <flowRoot
       transform="matrix(0.26458333,0,0,0.26458333,10.583334,64.255952)"
       style="font-style:normal;font-variant:normal;font-weight:normal;font-stretch:normal;font-size:192px;line-height:25px;font-family:'Blackadder ITC';-inkscape-font-specification:'Blackadder ITC, Normal';font-variant-ligatures:normal;font-variant-caps:normal;font-variant-numeric:normal;font-feature-settings:normal;text-align:center;letter-spacing:0px;word-spacing:0px;writing-mode:lr-tb;text-anchor:middle;fill:#000000;fill-opacity:1;stroke:none"
       id="flowRoot3949"
       xml:space="preserve"><flowRegion
         style="font-style:normal;font-variant:normal;font-weight:normal;font-stretch:normal;font-size:192px;font-family:'Blackadder ITC';-inkscape-font-specification:'Blackadder ITC, Normal';font-variant-ligatures:normal;font-variant-caps:normal;font-variant-numeric:normal;font-feature-settings:normal;text-align:center;writing-mode:lr-tb;text-anchor:middle"
         id="flowRegion3951"><rect
           style="font-style:normal;font-variant:normal;font-weight:normal;font-stretch:normal;font-size:192px;font-family:'Blackadder ITC';-inkscape-font-specification:'Blackadder ITC, Normal';font-variant-ligatures:normal;font-variant-caps:normal;font-variant-numeric:normal;font-feature-settings:normal;text-align:center;writing-mode:lr-tb;text-anchor:middle"
           y="328.23398"
           x="25.714285"
           height="568.57141"
           width="742.85712"
           id="rect3953" /></flowRegion><flowPara
         id="flowPara3957">Daniel...</flowPara></flowRoot>    <path
       transform="matrix(0.23050983,0.97307,0.97307,-0.23050983,195.89851,30.694811)"
       d="m 77.107155,-148.10677 c -1.061263,-1.47819 1.468981,-2.15984 2.456849,-1.76388 2.677061,1.07302 2.539428,4.70506 1.070927,6.67758 -2.626803,3.52839 -7.878353,3.13006 -10.898323,0.37797 -4.431927,-4.0388 -3.746097,-11.09755 0.314994,-15.11906 5.412796,-5.36004 14.333417,-4.37344 19.339797,1.00795 6.300018,6.77194 5.006722,17.57732 -1.700915,23.56054 -8.123847,7.24647 -20.825768,5.64346 -27.781271,-2.39388 -8.196819,-9.47173 -6.28238,-24.07705 3.086836,-32.00201 10.817132,-9.14967 27.33023,-6.92274 36.222745,3.7798 10.104236,12.16091 7.564126,30.58474 -4.472757,40.44348 -13.503567,11.06003 -33.840211,8.20625 -44.664219,-5.16572 -12.016701,-14.84541 -8.84891,-37.09641 5.858679,-48.88495 16.186656,-12.97406 40.353179,-9.492 53.105693,6.55164 6.01597,7.56855 9.05907,17.25577 8.57191,26.90216"
       id="path3959"
       style="fill:none;fill-rule:evenodd;stroke:#000000;stroke-width:0.26458332"
       inkscape:connector-curvature="0" />
    <path
       id="path3968"
       d="m 82.757047,178.37002 c 85.820333,-9.12597 86.576283,-3.8343 86.576283,-3.8343"
       style="fill:#000000;stroke:#000000;stroke-width:0.26458332px;stroke-linecap:butt;stroke-linejoin:miter;stroke-opacity:1"
       inkscape:connector-curvature="0" />
    <path
       id="path3968-9"
       d="m 72.31409,184.47324 c 85.82033,-9.12597 86.57628,-3.8343 86.57628,-3.8343"
       style="fill:#000000;stroke:#000000;stroke-width:0.26458332px;stroke-linecap:butt;stroke-linejoin:miter;stroke-opacity:1"
       inkscape:connector-curvature="0" />
  </g>
  <path
     style="fill:#008000;stroke-width:0.55410445"
     d="m 81.062689,75.263153 c 24.244041,-2.27842 50.395331,-3.37396 55.687501,-2.33289 2.81762,0.55428 -0.0699,0.77284 -24.10355,1.82445 -7.00942,0.30671 -17.980691,0.80028 -24.380591,1.09684 -16.665991,0.77226 -19.349411,0.55307 -7.20336,-0.5884 z"
     id="path3696"
     inkscape:connector-curvature="0" />
  <path
     style="fill:#008000;stroke-width:0.55410445"
     d="m 119.15737,63.051197 c -0.6857,-0.25915 -1.24673,-0.73332 -1.24673,-1.0537 0,-0.32039 0.56103,-0.45459 1.24673,-0.29824 1.86745,0.42581 2.96764,-0.7809 3.66143,-4.01594 0.343,-1.59934 1.21579,-4.33907 1.93955,-6.08829 0.72376,-1.74921 1.77,-4.67647 2.32497,-6.50502 0.55498,-1.82854 1.14929,-3.4493 1.3207,-3.60168 0.17141,-0.15238 0.71396,-1.02509 1.20568,-1.93936 0.55713,-1.0359 2.08354,-2.26869 4.05065,-3.27144 2.93653,-1.49694 3.22053,-1.54523 4.07313,-0.69264 0.85259,0.8526 0.81414,0.9165 -0.55143,0.9165 -2.33558,0 -4.18627,0.93978 -4.57506,2.32321 -0.19761,0.70316 -0.57065,1.77717 -0.82899,2.38668 -0.82951,1.95715 -3.33938,10.65973 -3.33938,11.57878 0,0.48871 -0.24935,0.88857 -0.5541,0.88857 -0.30476,0 -0.55411,0.44883 -0.55411,0.99739 0,0.54856 -0.20731,1.23427 -0.46069,1.52379 -0.25338,0.28952 -0.74376,1.52494 -1.08972,2.74537 -0.48672,1.71701 -1.10326,2.46248 -2.72541,3.29537 -2.73736,1.40548 -2.47032,1.34993 -3.89722,0.81065 z"
     id="path3706"
     inkscape:connector-curvature="0" />
  <path
     style="fill:#008000;stroke-width:0.55410445"
     d="m 105.43845,62.763767 c -1.66304,-1.79445 -1.64266,-2.90763 0.14583,-7.96645 1.24361,-3.51756 3.1371,-4.99001 6.42272,-4.9945 3.1809,-0.004 5.35175,1.7552 5.34104,4.32912 -0.0154,3.71022 -0.73211,3.95378 -7.5372,2.56145 -1.57349,-0.32194 -1.7832,-0.19395 -2.35099,1.4348 -0.47571,1.36462 -0.45927,2.13235 0.0694,3.24071 0.94398,1.97916 2.99892,2.12215 5.55634,0.38664 2.30357,-1.56325 2.73862,-1.15528 0.75513,0.70812 -0.82663,0.77657 -2.32391,1.34207 -4.11517,1.55422 -2.59253,0.30704 -2.9324,0.20762 -4.28708,-1.25411 z m 9.59001,-8.55936 c 0.21241,-2.52677 -1.29555,-4.07462 -3.44421,-3.53534 -1.34973,0.33876 -3.09339,2.6544 -3.09339,4.10811 0,0.88686 2.22228,1.64468 4.43284,1.51164 1.79536,-0.10805 1.95164,-0.26282 2.10476,-2.08441 z"
     id="path3710"
     inkscape:connector-curvature="0" />
  <path
     style="fill:#008000;stroke-width:0.55410445"
     d="m 99.625189,45.418937 c 0,-3.64012 1.686211,-6.12757 3.644411,-5.37614 0.66596,0.25555 0.64348,0.60368 -0.14593,2.25908 -0.51327,1.07634 -1.13638,1.95698 -1.38469,1.95698 -0.24831,0 -0.45148,0.34734 -0.45148,0.77187 0,0.42453 -0.37402,0.9154 -0.83116,1.09082 -0.553581,0.21243 -0.831151,-0.0222 -0.831151,-0.70261 z"
     id="path3712"
     inkscape:connector-curvature="0" />
  <path
     style="fill:#008000;stroke-width:0.55410445"
     d="m 94.690689,63.723197 c -2.28962,-0.64067 -2.57676,-1.83703 -1.02391,-4.2661 0.76536,-1.19723 1.85004,-3.49992 2.41041,-5.11707 0.88597,-2.55679 0.91278,-3.00737 0.20554,-3.45467 -0.57649,-0.3646 -0.13845,-0.51686 1.50428,-0.52287 2.894431,-0.0106 3.739031,1.56983 1.89048,3.53752 -0.63828,0.67942 -1.16051,1.53182 -1.16051,1.89424 0,0.3624 -0.49869,1.58938 -1.10821,2.7266 -1.57955,2.9471 -1.48531,4.23824 0.27705,3.79591 1.64019,-0.41166 1.8552,0.49115 0.31348,1.31626 -1.17669,0.62974 -1.36228,0.6348 -3.30861,0.0902 z"
     id="path3714"
     inkscape:connector-curvature="0" />
  <path
     style="fill:#008000;stroke-width:0.55410445"
     d=""
     id="path3716"
     inkscape:connector-curvature="0" />
  <path
     style="fill:#008000;stroke-width:0.55410445"
     d="m 91.867729,52.591237 c 0,-0.64533 0.42883,-0.88072 2.49347,-1.36868 1.89696,-0.44833 1.35094,0.24469 -0.96969,1.23074 -0.83808,0.35611 -1.52378,0.41818 -1.52378,0.13794 z"
     id="path3718"
     inkscape:connector-curvature="0" />
  <path
     style="fill:#008000;stroke-width:0.55410445"
     d="m 99.625189,61.159037 c 0.379391,-0.45713 0.939141,-0.83115 1.243901,-0.83115 0.3091,0 0.2491,0.36751 -0.13569,0.83115 -0.37939,0.45714 -0.939151,0.83116 -1.243911,0.83116 -0.30909,0 -0.24909,-0.36752 0.1357,-0.83116 z"
     id="path3720"
     inkscape:connector-curvature="0" />
  <path
     style="fill:#008000;stroke-width:0.55410445"
     d=""
     id="path3722"
     inkscape:connector-curvature="0" />
  <path
     style="fill:#008000;stroke-width:0.55410445"
     d="m 132.6237,62.591707 c -0.19382,-0.31361 0.0575,-1.19575 0.55842,-1.9603 0.75118,-1.14645 1.10103,-1.2883 1.99602,-0.80932 1.61234,0.8629 1.1303,2.9542 -0.73057,3.16955 -0.8093,0.0936 -1.63004,-0.0863 -1.82387,-0.39993 z"
     id="path3724"
     inkscape:connector-curvature="0" />
  <path
     style="fill:#008000;stroke-width:0.55410445"
     d="m 143.95354,62.132907 c 0,-0.57151 0.31169,-1.44928 0.69264,-1.95061 0.59715,-0.78585 0.83301,-0.80622 1.711,-0.14774 1.45525,1.0914 0.96018,2.7492 -0.88459,2.96213 -1.1783,0.136 -1.51905,-0.0578 -1.51905,-0.86378 z"
     id="path3726"
     inkscape:connector-curvature="0" />
  <path
     style="fill:#008000;stroke-width:0.55410445"
     d="m 155.03564,62.094847 c 0,-1.40464 1.27444,-2.43513 2.45253,-1.98305 1.53108,0.58753 0.85765,2.67934 -0.92875,2.88489 -1.19987,0.13806 -1.52378,-0.0536 -1.52378,-0.90184 z"
     id="path3728"
     inkscape:connector-curvature="0" />
  <path
     style="fill:#008000;stroke-width:0.55410445"
     d="m 70.673226,63.334717 c -0.943888,-0.95623 -0.358079,-1.69825 1.16433,-1.47481 1.454169,0.21343 1.655874,0.0184 2.534381,-2.45091 1.778062,-4.99769 2.250532,-7.43766 1.526842,-7.88493 -0.4237,-0.26186 0.0662,-0.75425 1.36827,-1.37515 2.3568,-1.12388 3.0901,-0.56155 2.58183,1.97983 -0.25114,1.2557 -0.11278,1.5504 0.72897,1.55263 0.8977,0.002 0.84331,0.17187 -0.40016,1.24674 -0.7915,0.68419 -1.74697,2.24137 -2.12326,3.4604 -1.00174,3.24524 -2.46275,4.76923 -4.879867,5.09022 -1.147164,0.15235 -2.272768,0.0875 -2.501336,-0.14402 z"
     id="path3730"
     inkscape:connector-curvature="0" />
  <path
     style="fill:#008000;stroke-width:0.55410445"
     d="m 83.562489,62.828987 c -0.82885,-0.99871 -0.51383,-3.30774 1.05445,-7.72904 0.76407,-2.15406 0.96804,-3.41122 0.59124,-3.6441 -0.53717,-0.33198 1.67715,-1.65595 2.76955,-1.65595 1.46549,0 0.91202,3.75554 -1.32438,8.9864 -1.18079,2.76182 -1.13528,3.60598 0.13254,2.45862 1.60584,-1.45327 1.94069,-1.06874 0.649,0.74528 -1.28752,1.80815 -2.79661,2.13503 -3.8724,0.83879 z"
     id="path3732"
     inkscape:connector-curvature="0" />
  <path
     style="fill:#008000;stroke-width:0.55410445"
     d=""
     id="path3734"
     inkscape:connector-curvature="0" />
  <path
     style="fill:#008000;stroke-width:0.55410445"
     d=""
     id="path3736"
     inkscape:connector-curvature="0" />
  <path
     style="fill:#008000;stroke-width:0.55410445"
     d=""
     id="path3738"
     inkscape:connector-curvature="0" />
  <path
     style="fill:#008000;stroke-width:0.55410445"
     d="m 72.197014,52.016317 c 0.609515,-0.26192 1.606904,-0.48992 2.216417,-0.50668 0.914678,-0.0251 0.963058,0.0633 0.277053,0.50668 -0.457136,0.29542 -1.454523,0.52343 -2.216417,0.50667 -1.268666,-0.0279 -1.291987,-0.0705 -0.277053,-0.50667 z"
     id="path3740"
     inkscape:connector-curvature="0" />
  <path
     style="fill:#008000;stroke-width:0.55410445"
     d=""
     id="path3742"
     inkscape:connector-curvature="0" />
  <path
     style="fill:#008000;stroke-width:0.55410445"
     d=""
     id="path3744"
     inkscape:connector-curvature="0" />
  <path
     style="fill:#008000;stroke-width:0.55410445"
     d=""
     id="path3746"
     inkscape:connector-curvature="0" />
  <path
     style="fill:#008000;stroke-width:0.27705222"
     d="m 81.057629,54.128957 c 0.0889,-0.23165 0.007,-0.41558 -0.18391,-0.41558 -0.18886,0 0.49326,-0.56103 1.51583,-1.24674 1.02256,-0.6857 1.97412,-1.24673 2.11458,-1.24673 0.14045,0 0.25537,-0.12468 0.25537,-0.27705 0,-0.15238 0.12906,-0.27706 0.2868,-0.27706 0.63758,0 -0.3697,1.14386 -1.95575,2.22093 -0.91063,0.61839 -1.65568,1.24437 -1.65568,1.39107 0,0.14671 -0.12076,0.26673 -0.26836,0.26673 -0.1476,0 -0.19659,-0.18701 -0.10888,-0.41557 z"
     id="path3748"
     inkscape:connector-curvature="0" />
  <path
     style="fill:#008000;stroke-width:0.27705222"
     d="m 62.602966,64.174897 c -0.412713,-0.21561 -0.798145,-0.76006 -0.969682,-1.36975 -0.400974,-1.42516 -0.603478,-1.52673 -1.465067,-0.73484 -2.044237,1.87886 -3.365368,2.18099 -5.372375,1.2286 -1.265841,-0.60068 -1.916853,-2.42401 -1.387832,-3.887 0.176898,-0.4892 0.322844,-1.19229 0.324323,-1.56242 0.0016,-0.37013 0.440807,-1.22412 0.976284,-1.89776 0.535477,-0.67364 1.049705,-1.54636 1.14273,-1.93937 0.233772,-0.98764 0.843767,-1.62218 1.750962,-1.82144 0.422201,-0.0927 1.06381,-0.48988 1.425797,-0.88256 1.068054,-1.15862 2.277542,-1.55032 3.581077,-1.15977 0.851258,0.25504 1.242225,0.25516 1.721258,5.3e-4 0.607748,-0.32304 2.824234,-0.28032 3.165565,0.061 0.09527,0.0953 0.839356,0.0949 1.653521,-8e-4 0.931225,-0.10944 1.480302,-0.0696 1.480302,0.1073 0,0.42079 -0.606499,0.83804 -1.375003,0.94594 -0.515453,0.0724 -0.7268,0.31436 -0.864007,0.98929 -0.0999,0.49141 -0.360945,1.17712 -0.580099,1.52379 -0.219155,0.34666 -0.5437,1.129 -0.721212,1.73851 -0.177509,0.60952 -0.718508,1.58682 -1.202214,2.1718 -0.5173,0.62559 -0.914101,1.44952 -0.963565,2.00077 -0.04625,0.51546 -0.226597,1.20346 -0.400764,1.52889 -0.552172,1.03175 0.105831,1.29117 1.412375,0.55685 0.62108,-0.34906 1.193477,-0.57042 1.271995,-0.4919 0.474332,0.47433 -1.935438,2.88813 -3.095847,3.10102 -0.452949,0.0831 -1.131782,-0.01 -1.508522,-0.20675 z m -2.443263,-3.39669 c 0.451466,-0.45714 1.137761,-1.39219 1.5251,-2.07789 0.387337,-0.68571 0.916213,-1.55842 1.17528,-1.93937 0.259064,-0.38094 0.644376,-1.28483 0.856244,-2.00863 0.211871,-0.7238 0.482674,-1.31599 0.601787,-1.31599 0.11911,0 0.216567,-0.1914 0.216567,-0.42533 0,-0.23393 0.200107,-0.73073 0.444685,-1.104 0.424447,-0.64779 0.414991,-0.68996 -0.207791,-0.92663 -0.823153,-0.31282 -3.032635,0.0107 -3.883884,0.56876 -0.356026,0.23338 -0.816256,0.90932 -1.022734,1.50208 -0.206478,0.59276 -0.785294,1.95046 -1.286259,3.01711 -0.500962,1.06665 -1.142404,2.62507 -1.425424,3.46315 -0.283019,0.83809 -0.608086,1.56535 -0.722371,1.61614 -0.394271,0.17523 -0.206486,1.12758 0.275524,1.39733 0.584163,0.32691 2.204093,-0.50186 3.453276,-1.76673 z"
     id="path3750"
     inkscape:connector-curvature="0" />
  <path
     style="fill:#008000;stroke-width:0.27705222"
     d="m 18.682535,64.490957 c -0.457136,-0.14129 -1.125768,-0.187 -1.485847,-0.10157 -0.360079,0.0854 -1.323792,0.0164 -2.141588,-0.15338 -1.927825,-0.40021 -2.471298,-1.08673 -2.710786,-3.42426 -0.159427,-1.5561 -0.09351,-1.98828 0.49851,-3.26833 0.375227,-0.8113 0.85902,-1.69328 1.075095,-1.95994 0.483049,-0.59613 2.47256,-0.66115 2.941491,-0.0961 0.52128,0.6281 0.794428,1.92287 0.546847,2.59214 -0.260469,0.70412 -1.212946,0.83838 -1.455907,0.20523 -0.257429,-0.67085 -1.182571,-0.47885 -1.920949,0.39866 -0.582861,0.69269 -0.663842,1.01321 -0.542497,2.14715 0.174104,1.62697 0.489075,2.07005 1.322795,1.86079 0.349319,-0.0877 0.892792,-0.0215 1.207717,0.14704 0.831475,0.44499 2.898775,-0.14412 3.949245,-1.12541 0.468802,-0.43793 1.091613,-0.79623 1.384028,-0.79623 0.306451,0 0.638878,-0.282 0.784767,-0.66572 0.139208,-0.36614 0.37379,-0.7403 0.521293,-0.83146 0.147502,-0.0912 0.353039,-0.78271 0.456747,-1.53677 0.103709,-0.75405 0.359445,-1.51283 0.568301,-1.68616 0.245185,-0.20349 0.321699,-0.60535 0.215943,-1.13414 -0.119118,-0.59559 -0.0122,-0.98575 0.392012,-1.43036 0.305694,-0.33626 0.623461,-0.92306 0.706149,-1.30401 0.08269,-0.38095 0.488206,-1.87703 0.901157,-3.32463 0.412949,-1.44759 0.740588,-3.06835 0.728084,-3.60167 -0.04464,-1.90415 0.554447,-4.17378 1.216141,-4.60734 0.343122,-0.22482 0.695055,-0.69244 0.782071,-1.03915 0.08702,-0.3467 0.498293,-0.99468 0.913942,-1.43994 0.627354,-0.67204 0.752729,-1.05158 0.738066,-2.2343 -0.02384,-1.92353 -0.375018,-2.24908 -2.148371,-1.99166 -3.561369,0.51698 -4.679686,0.77422 -5.127451,1.17944 -0.265046,0.23986 -0.623591,0.43612 -0.796763,0.43612 -0.468898,0 -2.29974,1.68506 -2.542223,2.33979 -0.154493,0.41715 -0.0067,0.81706 0.553265,1.49667 0.682958,0.82893 0.735499,1.03486 0.494829,1.93936 -0.378034,1.42075 -0.922274,1.78819 -1.89984,1.28267 -0.423487,-0.21899 -1.042983,-0.74351 -1.376657,-1.1656 -0.519649,-0.65734 -0.581567,-0.9834 -0.431625,-2.27297 0.09628,-0.82804 0.306673,-1.66413 0.467543,-1.85796 0.160866,-0.19384 0.219083,-0.4712 0.129365,-0.61636 -0.456856,-0.73921 3.867631,-2.85133 4.971052,-2.4279 0.216258,0.083 0.561208,-0.089 0.766559,-0.38217 0.432726,-0.6178 3.091818,-1.38311 4.805685,-1.38311 1.174835,0 1.766512,-0.35755 2.328088,-1.40686 0.156741,-0.29288 0.465965,-0.5325 0.68716,-0.5325 0.221197,0 1.028835,-0.62337 1.794748,-1.38526 0.765913,-0.7619 1.546767,-1.38603 1.735232,-1.38697 0.188463,-0.001 0.71668,-0.20738 1.173816,-0.45875 0.503952,-0.27711 1.649169,-0.49132 2.909049,-0.54412 1.142841,-0.0479 2.353839,-0.10427 2.691109,-0.12529 0.33727,-0.021 0.817933,0.16649 1.068139,0.4167 0.51612,0.51612 0.798398,0.4574 2.904847,-0.60423 1.370497,-0.69072 1.516687,-0.85331 1.593302,-1.77208 0.08767,-1.05133 0.470014,-1.34244 2.335686,-1.77839 0.639416,-0.14941 0.800484,-0.0646 1.031552,0.54316 0.222563,0.58538 0.149495,0.91497 -0.390294,1.76056 -0.365263,0.5722 -0.924605,1.30432 -1.242978,1.62694 -0.811266,0.82209 -3.269449,1.54744 -4.294913,1.26732 -0.586507,-0.16021 -1.280866,-0.0535 -2.482376,0.38158 -1.648817,0.59702 -1.681986,0.59805 -2.8692,0.0891 -1.178666,-0.50524 -1.222931,-0.50459 -2.369831,0.0345 -0.867018,0.40754 -1.292913,0.83601 -1.649777,1.65974 -0.264578,0.6107 -0.48105,1.15478 -0.48105,1.20907 0,0.0543 0.811591,0.16384 1.803535,0.24346 0.991944,0.0796 1.958163,0.27219 2.147155,0.42791 0.250751,0.20662 3.080152,0.88845 3.686818,0.88845 0.03043,0 0.119049,0.24366 0.196932,0.54148 0.0813,0.31089 0.478512,0.61864 0.93273,0.72266 0.435123,0.0996 1.617054,0.55293 2.626511,1.00731 1.732052,0.77963 1.885796,0.92647 2.730849,2.60816 0.673584,1.34046 0.865441,2.03793 0.77429,2.81478 -0.07294,0.6216 0.07054,1.47394 0.360391,2.14096 0.688605,1.58465 1.094235,5.05151 0.635572,5.43217 -0.193987,0.16099 -0.434332,0.87471 -0.534101,1.58605 -0.09977,0.71134 -0.494313,2.19228 -0.876763,3.29099 -0.571839,1.64279 -0.960345,2.24427 -2.18712,3.38605 -0.82047,0.76363 -1.491761,1.50821 -1.491761,1.65463 0,0.14642 -0.2732,0.35293 -0.607107,0.45891 -0.33391,0.10598 -0.988446,0.55028 -1.454526,0.98732 -0.466079,0.43705 -1.246624,0.87019 -1.734539,0.96254 -0.487921,0.0923 -1.071436,0.44918 -1.296705,0.79298 -0.413895,0.63169 -2.155169,1.38344 -4.188372,1.80823 -0.609516,0.12734 -1.731579,0.40667 -2.493471,0.62072 -0.761894,0.21405 -2.067631,0.38092 -2.901638,0.37081 -1.397269,-0.0169 -1.560478,-0.0883 -2.077891,-0.90828 -0.769353,-1.2193 -1.962719,-1.60375 -3.275508,-1.05523 -0.55463,0.23174 -1.385363,0.42134 -1.846074,0.42134 -0.530651,0 -1.303253,0.3554 -2.108012,0.96969 -1.355088,1.03436 -1.46848,1.06177 -2.751699,0.66517 z m 16.04097,-3.17813 c 0.746461,-0.20222 1.488268,-0.49875 1.64846,-0.65894 0.160192,-0.16019 0.684755,-0.29126 1.165694,-0.29126 1.08562,0 3.258997,-1.59218 3.892775,-2.85178 0.245858,-0.48863 0.892593,-1.35354 1.437182,-1.92202 0.544592,-0.56849 1.023054,-1.25419 1.063252,-1.52379 0.0402,-0.26961 0.197757,-1.45246 0.350131,-2.62858 0.152376,-1.17612 0.404148,-2.37589 0.559496,-2.66615 0.440713,-0.82349 0.915241,-3.07911 1.000072,-4.75376 0.05507,-1.08716 -0.109358,-2.00011 -0.573839,-3.1861 -0.358061,-0.91427 -0.688668,-2.22334 -0.734679,-2.90905 l -0.08366,-1.24673 -1.992808,-0.69264 c -1.096044,-0.38094 -2.227611,-0.91052 -2.514594,-1.17684 -0.673534,-0.62504 -2.726775,-1.00348 -3.852029,-0.70999 -1.583576,0.41304 -3.69234,3.64212 -3.69234,5.65395 0,0.63607 -0.186243,1.51359 -0.413872,1.95005 -0.227629,0.43646 -0.414639,1.27851 -0.415578,1.87123 -0.0011,0.69663 -0.169683,1.20049 -0.47679,1.42505 -0.376245,0.27512 -0.460774,0.70975 -0.406299,2.0891 0.08595,2.17631 -0.370438,4.44506 -1.074132,5.33966 -0.344416,0.43786 -0.538329,1.11672 -0.538993,1.88694 -7.94e-4,0.75856 -0.225915,1.56129 -0.609709,2.17272 -0.682717,1.08764 -1.605671,3.48321 -1.605671,4.1676 0,0.24676 0.280514,0.57661 0.623366,0.73299 0.342852,0.15638 1.173091,0.54182 1.844974,0.85653 l 1.221608,0.5722 1.410388,-0.56635 c 0.775716,-0.3115 2.02113,-0.73181 2.767591,-0.93404 z"
     id="path3752"
     inkscape:connector-curvature="0" />
  <path
     style="fill:#008000;stroke-width:0.55410445"
     d="m 69.880483,81.256191 c 24.244036,-2.278408 50.395327,-3.373958 55.687497,-2.332888 2.81762,0.55428 -0.0699,0.77285 -24.10354,1.824458 -7.009421,0.3067 -17.980691,0.80028 -24.380601,1.09683 -16.665986,0.77226 -19.349406,0.55307 -7.203356,-0.5884 z"
     id="path3696-5"
     inkscape:connector-curvature="0" />
</svg>
