<?xml version="1.0" encoding="UTF-8" standalone="no"?>
<!-- Created with Inkscape (http://www.inkscape.org/) -->

<svg
   xmlns:dc="http://purl.org/dc/elements/1.1/"
   xmlns:cc="http://creativecommons.org/ns#"
   xmlns:rdf="http://www.w3.org/1999/02/22-rdf-syntax-ns#"
   xmlns:svg="http://www.w3.org/2000/svg"
   xmlns="http://www.w3.org/2000/svg"
   xmlns:sodipodi="http://sodipodi.sourceforge.net/DTD/sodipodi-0.dtd"
   xmlns:inkscape="http://www.inkscape.org/namespaces/inkscape"
   width="100"
   height="100"
   viewBox="0 0 26.458332 26.458334"
   version="1.1"
   id="svg8"
   inkscape:version="0.92.1 r15371"
   sodipodi:docname="no.svg">
  <defs
     id="defs2" />
  <sodipodi:namedview
     id="base"
     pagecolor="#ffffff"
     bordercolor="#666666"
     borderopacity="1.0"
     inkscape:pageopacity="0.0"
     inkscape:pageshadow="2"
     inkscape:zoom="0.35"
     inkscape:cx="400"
     inkscape:cy="560"
     inkscape:document-units="mm"
     inkscape:current-layer="layer1"
     showgrid="false"
     units="px"
     inkscape:window-width="1366"
     inkscape:window-height="705"
     inkscape:window-x="-8"
     inkscape:window-y="-8"
     inkscape:window-maximized="1" />
  <metadata
     id="metadata5">
    <rdf:RDF>
      <cc:Work
         rdf:about="">
        <dc:format>image/svg+xml</dc:format>
        <dc:type
           rdf:resource="http://purl.org/dc/dcmitype/StillImage" />
        <dc:title></dc:title>
      </cc:Work>
    </rdf:RDF>
  </metadata>
  <g
     inkscape:label="Capa 1"
     inkscape:groupmode="layer"
     id="layer1"
     transform="translate(0,-270.54165)">
    <path
       style="fill:#ff0000;stroke-width:0.11014297"
       id="path12"
       d="m 6.0291027,294.10585 c 0.239621,-1.22931 0.374597,-2.47895 0.676715,-3.68865 0.230566,-0.85704 0.479071,-1.70698 0.862104,-2.4757 0.310197,-0.58036 0.694562,-1.07797 1.088732,-1.56581 1.4884813,-1.63063 3.7722543,-2.14772 5.4722543,-2.91134 -1.178718,0.53351 -2.35597,1.0722 -3.536155,1.60053 -0.117782,0.0528 0.231449,-0.11924 0.348756,-0.17363 1.402598,-0.65034 2.81514,-1.267 4.210852,-1.94049 1.169535,-0.56434 -2.353352,1.08048 -3.532227,1.61302 -0.215555,0.0974 0.424642,-0.21619 0.636335,-0.32621 1.747029,-1.04186 3.49686,-2.15902 5.418744,-2.615 0.07094,-0.0404 0.139456,-0.0885 0.212818,-0.12131 0.639768,-0.28648 -0.151095,0.11531 0.521955,-0.15777 0.08129,-0.033 0.313857,-0.16932 0.23339,-0.13325 -3.602022,1.6146 -4.767591,2.46224 -3.425811,1.50874 0.575429,-0.45095 0.836772,-1.13574 1.106305,-1.88331 0.302776,-0.86707 0.573174,-1.7485 0.810333,-2.64725 0.199738,-0.86209 0.346735,-1.74134 0.510692,-2.61478 0.08722,-0.39129 0.162782,-0.78592 0.232332,-1.18266 0,0 3.994952,-1.52229 3.994952,-1.52229 v 0 c -0.06452,0.40657 -0.133848,0.81167 -0.232197,1.20794 -0.195562,0.87167 -0.301358,1.7739 -0.504555,2.64468 -0.228245,0.91958 -0.498576,1.8163 -0.799227,2.70167 -0.270241,0.78101 -0.4676,1.61379 -1.043267,2.13339 -1.354227,1.682 -3.519805,1.81978 -5.291022,2.57778 -1.436855,0.61641 -0.681914,0.29542 3.394405,-1.58896 0.08188,-0.0379 -0.163585,0.0771 -0.242472,0.12396 -0.276972,0.16468 -0.508938,0.42615 -0.809649,0.52881 -1.524878,0.92172 -3.452544,1.62367 -4.837174,2.30051 -1.165752,0.56983 2.346743,-1.08885 3.522364,-1.62547 0.117352,-0.0536 -0.231569,0.11747 -0.347354,0.1762 -1.405019,0.64545 -2.810037,1.29089 -4.215055,1.93633 1.189896,-0.55094 2.381444,-1.09624 3.569689,-1.65283 0.10148,-0.0476 -0.207597,0.0782 -0.309125,0.12556 -0.360996,0.16842 -0.710483,0.40104 -1.002438,0.71883 -0.420279,0.41945 -0.794435,0.91379 -1.110378,1.46157 -0.466409,0.65171 -0.665556,1.52354 -0.918764,2.32441 -0.344524,1.17853 -0.464705,2.41295 -0.664417,3.63836 0,0 -4.0024403,1.50442 -4.0024403,1.50442 z"
       inkscape:connector-curvature="0" />
    <path
       style="fill:#ff0000;stroke-width:0.11014297"
       id="path14"
       d="m 6.1371987,273.05787 c 0.845834,-0.0108 1.698354,0.0789 2.525847,0.30327 0.802797,0.29504 1.4727743,0.88598 2.0847243,1.58551 0.611286,0.62327 1.078191,1.43094 1.559433,2.20676 0.388083,0.7736 0.767699,1.55099 1.100563,2.36532 0.27197,0.88894 0.642116,1.71925 0.95182,2.58572 0.339459,0.8821 0.846784,1.62875 1.362084,2.35287 0.630363,0.90292 1.311741,1.72113 2.070361,2.44794 0.809471,0.65989 1.68587,1.17897 2.583874,1.61605 1.061242,0.49856 2.107544,1.03756 3.215767,1.34754 0.361853,0.12097 0.720428,0.06 1.085175,0.0166 0,0 -3.705804,2.40885 -3.705804,2.40885 v 0 c -0.383371,4.6e-4 -0.760215,-0.0192 -1.132188,-0.15595 -1.10179,-0.37465 -2.153729,-0.92813 -3.224501,-1.42039 -0.92156,-0.46832 -1.83301,-1.00551 -2.638561,-1.74693 -0.766883,-0.75994 -1.462183,-1.61319 -2.11028,-2.53295 -0.537171,-0.77046 -1.057879,-1.56932 -1.414722,-2.49902 -0.303343,-0.85911 -0.6627123,-1.68569 -0.9422173,-2.55896 -0.32241,-0.78466 -0.687584,-1.53632 -1.073188,-2.274 -0.46403,-0.75171 -0.921794,-1.52227 -1.519285,-2.11736 -0.591544,-0.61573 -1.23077,-1.14012 -1.996481,-1.33033 -0.829769,-0.16244 -1.666914,-0.24956 -2.507274,-0.20702 0,0 3.724853,-2.39354 3.724853,-2.39354 z"
       inkscape:connector-curvature="0" />
  </g>
</svg>
